<svg id="Capa_1" enable-background="new 0 0 512.041 512.041" height="512" viewBox="0 0 512.041 512.041" width="512" xmlns="http://www.w3.org/2000/svg"><g><g id="Agriculture_2_"><g><g><path d="m31.313 94.66c-22.924-25.134-30.182-42.456-31.293-44.722 24.622-48.076 105.547-70.078 184.926-26.484 58.934 34.317 92.103 94.716 47.578 146.265l-4.365 5.068-6.68.132c-81.596 1.345-135.323-19.373-190.166-80.259z" fill="#57d9ad"/></g><g><path d="m290.562 174.919-6.68-.132-4.365-5.068c-44.333-51.326-11.652-111.893 47.256-146.213 63.503-34.908 147.687-34.706 185.248 26.432-8.357 13.453-13.896 25.648-31.352 44.795-55.548 61.661-109.726 81.496-190.107 80.186z" fill="#26bfa6"/></g></g></g><path d="m389.321 61.555c-47.52 19.248-87.012 51.372-111.123 90.293-9.023 14.136-16.406 29.561-22.178 46.23-5.742-16.626-13.096-32.007-22.09-46.055-24.199-39.097-63.691-71.221-111.211-90.469l-11.25 27.803c41.631 16.875 76.084 44.736 97.061 78.633 20.771 32.52 31.699 73.594 32.49 122.051v56h30v-56c.791-48.457 11.719-89.531 32.578-122.227 20.889-33.721 55.342-61.582 96.973-78.457z" fill="#26bfa6"/><path d="m271.021 346.041v-56c.791-48.457 11.719-89.531 32.578-122.227 20.889-33.721 55.342-61.582 96.973-78.457l-11.25-27.803c-47.52 19.248-87.012 51.372-111.123 90.293-9.023 14.136-16.406 29.561-22.178 46.23v147.963h15z" fill="#0f9983"/><g><path d="m512.021 512.041h-512v-16c0-72.388 73.055-123.063 140.248-98.965 24.141-40.547 68.145-66.035 115.752-66.035s91.611 25.488 115.752 66.035c67.058-24.049 140.248 26.448 140.248 98.965z" fill="#5c6366"/></g><path d="m512.021 512.041v-16c0-72.517-73.191-123.014-140.248-98.965-24.141-40.547-68.145-66.035-115.752-66.035v181z" fill="#41474d"/></g></svg>